PathFileType	4	(X/Y/Z)	 s08c0402.trc
DataRate	CameraRate	NumFrames	NumMarkers	Units	OrigDataRate	OrigDataStartFrame	OrigNumFrames
200	200	5	50	mm	200	1751	2000
Frame#	Time	racr			lacr			c7			jug			rlel			rdr			llel			ldr			s2			lic			ric			lasi			rasi			rpsi			lpsi			rgt			lgt			rth1			rth2			rth3			rth4			rlfc			rmfc			rsh1			rsh2			rsh3			rsh4			rlmal			rmmal			rcal			rtoe			rmt5			lth1			lth2			lth4			lth3			llfc			lmfc			llmal			lmmal			lcal			lmt5			lsh1			lsh2			lsh3			lsh4			ltoe			SBIKE			LBIKE			RBIKE			
		X1	Y1	Z1	X2	Y2	Z2	X3	Y3	Z3	X4	Y4	Z4	X5	Y5	Z5	X6	Y6	Z6	X7	Y7	Z7	X8	Y8	Z8	X9	Y9	Z9	X10	Y10	Z10	X11	Y11	Z11	X12	Y12	Z12	X13	Y13	Z13	X14	Y14	Z14	X15	Y15	Z15	X16	Y16	Z16	X17	Y17	Z17	X18	Y18	Z18	X19	Y19	Z19	X20	Y20	Z20	X21	Y21	Z21	X22	Y22	Z22	X23	Y23	Z23	X24	Y24	Z24	X25	Y25	Z25	X26	Y26	Z26	X27	Y27	Z27	X28	Y28	Z28	X29	Y29	Z29	X30	Y30	Z30	X31	Y31	Z31	X32	Y32	Z32	X33	Y33	Z33	X34	Y34	Z34	X35	Y35	Z35	X36	Y36	Z36	X37	Y37	Z37	X38	Y38	Z38	X39	Y39	Z39	X40	Y40	Z40	X41	Y41	Z41	X42	Y42	Z42	X43	Y43	Z43	X44	Y44	Z44	X45	Y45	Z45	X46	Y46	Z46	X47	Y47	Z47	X48	Y48	Z48	X49	Y49	Z49	X50	Y50	Z50	
1751	8.7550	884.670031	1374.692577	-99.634861	871.807804	1329.015254	-426.136389	875.399473	1397.503226	-262.491729	803.794197	1254.493170	-248.168698	730.216961	1191.324889	68.242684	775.516063	931.115043	-29.154699	672.565553	1146.908423	-561.744351	785.646948	937.796111	-436.871374	296.497947	1259.359714	-158.638758	414.911799	1243.656072	-333.625332	483.509325	1218.128047	-26.167863	451.170645	1201.967722	-296.570548	477.298084	1147.295339	-57.582948	345.718821	1286.431772	-104.049753	329.206534	1302.556846	-195.950656	354.630315	1117.929800	7.085345	381.587380	1161.233969	-363.889091	356.702878	949.474236	11.171186	375.086557	862.699095	7.731705	350.812129	781.400765	-12.579586	412.118179	861.674109	6.666392	352.060678	662.819800	-33.256138	337.711451	659.250051	-143.494447	263.862239	560.896434	-5.573711	250.603562	474.177856	-25.387474	196.796971	407.659484	-35.761694	281.077352	465.816598	-50.625610	141.990035	300.249250	-47.926196	188.632433	340.026231	-125.676344	70.039098	320.100784	-98.371576	299.749720	130.438977	-99.937072	209.882354	157.616904	-33.889517	465.067275	1063.673668	-375.188105	541.939944	1023.763786	-382.827267	567.296055	1046.443000	-365.849252	587.862203	947.625231	-390.362650	655.215958	836.311927	-374.717584	655.247630	803.421388	-267.155807	322.781320	586.321482	-385.382148	352.297373	586.345717	-301.094381	243.202905	592.777942	-349.226405	407.282403	455.800843	-414.243803	566.712741	754.268075	-400.702244	509.923758	692.563522	-388.898607	427.114084	659.634836	-390.018389	524.028521	673.412266	-354.724363	493.685222	449.064058	-346.557685	-141.703546	941.250392	-221.521580	18.288919	84.235914	-426.022987	11.224811	80.366181	-27.563248	
1752	8.7600	884.132693	1374.828019	-100.654480	871.712185	1325.893586	-426.953391	875.648912	1396.641544	-264.075137	802.078306	1254.714012	-248.967959	729.347351	1192.041787	67.126912	775.765403	931.263487	-29.119509	671.532693	1145.331826	-563.493172	785.076085	937.842033	-436.833967	296.621331	1261.468238	-158.914265	414.264521	1242.668739	-333.715601	483.538895	1222.012828	-25.408827	450.807938	1202.407254	-296.263812	477.491735	1150.742067	-56.778075	346.390681	1288.810604	-105.547700	329.354839	1304.274089	-197.145753	356.072874	1121.379334	9.251028	380.392358	1160.538629	-362.936850	360.674503	951.284596	12.422476	380.652571	864.533223	7.925844	357.961746	782.786595	-11.602114	417.549902	864.087926	7.240444	360.439296	664.582877	-31.848315	347.199908	660.361880	-142.118977	268.812089	564.715007	-4.410853	252.589456	478.092523	-26.275582	196.531302	414.111070	-34.997413	282.726412	469.322399	-50.481754	138.248128	308.073181	-47.236012	184.559811	344.714878	-125.472190	66.795960	330.098959	-98.205097	290.482669	133.222967	-99.966244	201.498123	163.527587	-33.773660	462.838328	1062.210466	-375.277454	539.319507	1021.663293	-383.276264	565.173029	1044.696336	-367.168790	584.628842	945.056489	-390.791311	651.582560	834.058139	-375.714957	652.428903	800.918934	-268.588034	325.081833	577.051047	-385.867061	353.983964	577.878856	-300.824535	245.049637	579.657005	-349.656217	415.131492	450.693737	-414.506016	564.806294	748.815507	-401.340842	509.385065	686.090888	-388.787020	427.314403	651.263072	-389.926601	523.661535	667.908596	-354.061068	501.482712	448.025102	-346.394813	-141.681753	941.267072	-221.706211	18.267069	84.219770	-426.050977	11.282048	80.567949	-27.379678	
1753	8.7650	883.616365	1375.112544	-101.225987	871.671034	1323.159194	-428.153488	875.918080	1395.892120	-265.375655	800.552929	1254.995192	-249.489169	728.407649	1192.763711	66.222814	776.091528	931.478642	-29.384069	670.575963	1143.841301	-565.228139	784.360307	937.847417	-436.626399	296.549120	1263.656258	-159.214087	413.750042	1241.629401	-333.896319	483.569780	1225.620847	-24.720479	450.505195	1202.791102	-296.010642	477.540775	1154.185139	-56.227834	346.491159	1291.579970	-106.206351	329.622808	1305.879727	-198.309255	357.092220	1124.614404	10.924791	379.178225	1159.724693	-362.167173	365.457089	952.567860	12.961606	387.181625	866.335332	8.075714	365.825729	783.947974	-10.811823	423.979499	866.525603	6.931969	369.955719	665.683002	-30.387220	356.847781	661.806621	-140.917814	275.222818	568.741339	-3.114421	255.752028	482.774291	-25.499801	197.451595	420.916371	-34.061418	285.415591	472.608702	-50.410427	135.485639	316.447118	-46.579956	180.991877	349.654266	-125.350459	64.823611	340.866606	-97.756919	281.469461	136.763905	-100.183451	193.367813	169.847072	-34.116911	460.577299	1060.622518	-375.361373	536.575486	1019.351808	-383.699209	562.971932	1042.665091	-368.365158	581.112251	942.231112	-390.845597	648.032452	831.105675	-375.793327	649.059608	798.172872	-269.726609	327.311601	566.662271	-385.552200	356.308017	568.843491	-300.457156	247.134145	566.321460	-349.068989	422.558358	444.800351	-414.845847	562.598258	743.085006	-401.317147	508.692057	679.184489	-388.434882	427.494412	642.264236	-389.534409	523.180907	661.890665	-353.280533	508.782133	445.950220	-346.581134	-141.608555	941.285750	-221.844942	18.263103	84.209615	-426.031155	11.226221	80.425979	-27.571546	
1754	8.7700	883.047735	1375.565233	-101.653022	871.617940	1320.444408	-428.629351	876.067947	1395.450773	-266.390944	799.177375	1255.452619	-249.882372	727.535770	1193.472861	65.545641	776.164590	931.523442	-29.496135	669.763330	1142.630478	-566.831705	783.442554	937.891920	-436.237539	296.491849	1265.667378	-159.976882	413.365960	1240.541702	-334.161888	483.579001	1229.123887	-23.958659	450.260721	1203.105430	-295.812365	477.706096	1157.472272	-55.913258	346.746682	1293.872703	-107.689390	329.689531	1307.423958	-200.083081	357.361562	1127.483373	11.021867	378.019247	1158.914039	-361.491580	370.896178	953.665199	13.088234	394.719856	868.076749	8.343502	374.634590	784.908454	-10.207380	431.127053	869.198333	6.259452	380.438997	665.956454	-29.234503	366.924854	663.745750	-140.038437	282.705631	572.835242	-1.878914	259.725870	488.431532	-23.501391	199.601652	428.082438	-33.151506	290.483047	476.687952	-48.953853	133.907237	325.245227	-45.768046	177.963476	354.831627	-125.316068	64.024046	352.334631	-97.333992	272.949042	140.191634	-99.620878	186.232526	176.492263	-33.773729	458.296734	1059.114843	-375.496917	533.880045	1017.073185	-384.252972	560.730314	1040.425607	-369.392977	577.616039	939.240795	-390.650230	643.644516	827.914084	-376.205842	645.216644	795.314620	-270.416219	329.711295	556.522421	-386.545745	359.327556	559.132050	-299.481537	249.911678	553.146969	-348.236330	429.129888	437.983260	-415.188397	560.023237	737.353237	-401.063538	507.821235	672.275202	-387.956292	427.742518	633.016696	-389.016410	522.648772	655.834124	-352.599312	515.464791	442.643059	-347.314948	-141.501948	941.347699	-221.868324	18.259719	84.229025	-426.014676	11.213314	80.492753	-27.538328	
1755	8.7750	882.426599	1376.124985	-101.762100	871.516934	1318.062975	-429.156587	876.172133	1394.951265	-267.136092	797.829231	1255.849232	-249.898434	726.809449	1194.079262	65.059810	776.164924	931.432879	-29.636539	669.126226	1141.659328	-568.245957	782.510491	937.813661	-435.930770	296.573117	1267.166744	-160.725610	413.109871	1239.409286	-334.506708	483.382743	1232.116994	-23.416866	450.072821	1203.336405	-295.670306	478.073707	1160.404314	-55.728725	346.905501	1295.899073	-109.235048	329.810980	1308.841496	-201.703291	359.011004	1129.960367	12.582525	376.891825	1158.198999	-361.113568	377.041879	954.597224	13.586246	402.944100	869.749745	8.057150	384.251600	786.023193	-9.771616	439.269839	871.830226	5.044795	391.698462	666.774222	-28.137947	377.558576	665.771570	-139.023646	291.142060	576.869725	-0.670850	265.144360	493.605780	-22.813310	202.911109	435.321532	-32.301167	295.544405	480.587155	-48.429551	133.601611	334.233848	-45.114114	175.509456	360.234195	-125.373936	64.543811	364.359466	-96.810884	264.556407	143.696750	-99.521120	179.491775	183.555368	-33.639429	456.175796	1057.717324	-375.583178	531.313462	1014.939953	-384.702677	558.485728	1038.054227	-370.206870	574.333130	936.394338	-390.444763	639.202885	824.436461	-376.371334	640.998543	792.479299	-270.653887	332.741705	545.752792	-386.357930	362.410580	549.002882	-299.125010	253.085864	540.029633	-348.131356	435.648868	430.544334	-415.291204	557.246531	731.429573	-401.030955	507.833172	668.361143	-393.244894	428.094806	623.634614	-388.413580	522.296430	649.764038	-351.877381	521.925488	438.297899	-348.109017	-141.377453	941.456985	-222.091758	18.272847	84.260280	-426.028730	11.266728	80.790339	-27.382692	
